<svg xmlns="http://www.w3.org/2000/svg" width="32" height="32" fill="none"><path fill="#fff" fill-rule="evenodd" d="M4.681 4.691A15.95 15.95 0 0 0 0 16a15.95 15.95 0 0 0 4.681 11.309l.005.005A15.95 15.95 0 0 0 16 32a15.95 15.95 0 0 0 11.309-4.681l.01-.01A15.95 15.95 0 0 0 32 16a15.95 15.95 0 0 0-4.686-11.314A15.95 15.95 0 0 0 16 0 15.95 15.95 0 0 0 4.691 4.681l-.01.01Zm.097.476c-.097.19-.097.439-.097.937v19.792c0 .498 0 .747.097.937a.889.889 0 0 0 .389.389c.19.096.439.096.937.096h19.792c.498 0 .747 0 .937-.096a.889.889 0 0 0 .389-.389c.096-.19.096-.439.096-.937V6.104c0-.498 0-.747-.096-.937a.889.889 0 0 0-.389-.389c-.19-.097-.439-.097-.937-.097H6.104c-.498 0-.747 0-.937.097a.889.889 0 0 0-.389.389Z" clip-rule="evenodd" style="fill:#fff;fill-opacity:1"/></svg>